<svg width="32" height="32" viewBox="0 0 25 23" xmlns="http://www.w3.org/2000/svg">
	<path fill="currentColor" d="M 10.3599 17.3462 C 7.2016 16.9634 4.9765 14.6904 4.9765 11.7476 C 4.9765 10.5513 5.4072 9.2593 6.125 8.3979 C 5.814 7.6084 5.8618 5.9336 6.2207 5.2397 C 7.1777 5.1201 8.4697 5.6226 9.2354 6.3164 C 10.1445 6.0293 11.1015 5.8857 12.2739 5.8857 C 13.4463 5.8857 14.4033 6.0293 15.2646 6.2925 C 16.0064 5.6226 17.3223 5.1201 18.2793 5.2397 C 18.6142 5.8857 18.6621 7.5606 18.3511 8.374 C 19.1167 9.2832 19.5234 10.5034 19.5234 11.7476 C 19.5234 14.6904 17.2983 16.9155 14.0923 17.3223 C 14.9057 17.8486 15.456 18.9971 15.456 20.313 L 15.456 22.8013 C 15.456 23.5191 16.0542 23.9258 16.772 23.6387 C 21.1026 21.9878 24.5 17.6572 24.5 12.2979 C 24.5 5.5268 18.9971 0 12.2261 0 C 5.4551 0 -0 5.5268 -0 12.2979 C -0 17.6094 3.3735 22.0117 7.9194 23.6626 C 8.5654 23.9018 9.1875 23.4712 9.1875 22.8252 L 9.1875 20.9111 C 8.8526 21.0547 8.4219 21.1504 8.039 21.1504 C 6.46 21.1504 5.5268 20.2891 4.8569 18.686 C 4.5938 18.0401 4.3067 17.6572 3.7563 17.5855 C 3.4693 17.5615 3.3735 17.4419 3.3735 17.2983 C 3.3735 17.0112 3.8521 16.7959 4.3306 16.7959 C 5.0244 16.7959 5.6226 17.2266 6.2446 18.1118 C 6.7232 18.8057 7.2256 19.1167 7.8237 19.1167 C 8.4219 19.1167 8.8047 18.9014 9.355 18.3511 C 9.7617 17.9443 10.0727 17.5855 10.3599 17.3462 Z"></path>
</svg>