<svg width="32" height="32" viewBox="0 0 16 16" xmlns="http://www.w3.org/2000/svg">
	<path fill="currentColor" d="M14.72-0H1.37C1.1979-.0081 1.0259.0179.8639.0763.7019.1348.553.2247.4257.3408.2985.4569.1954.597.1223.753.0493.909.0077 1.0779 0 1.25V14.63C.0101 14.9901.1577 15.3328.4124 15.5875.6672 15.8423 1.0098 15.9899 1.37 16H14.72C15.0701 15.9844 15.4002 15.8322 15.6395 15.5761 15.8788 15.32 16.0082 14.9804 16 14.63V1.25C16.0029 1.0825 15.9715.9162 15.9078.7612 15.8441.6063 15.7494.466 15.6295.349 15.5097.2319 15.3672.1406 15.2108.0806 15.0544.0206 14.8874-.0069 14.72-0ZM5 13.34H2.67V6.21H5V13.34ZM3.89 5.13C3.7274 5.1356 3.5654 5.1076 3.4142 5.0477 3.2629 4.9877 3.1257 4.8972 3.0111 4.7817 2.8966 4.6662 2.8071 4.5282 2.7484 4.3765 2.6897 4.2247 2.663 4.0625 2.67 3.9 2.6628 3.7357 2.69 3.5717 2.75 3.4185 2.8099 3.2654 2.9011 3.1264 3.0179 3.0106 3.1346 2.8948 3.2743 2.8047 3.4279 2.746 3.5816 2.6874 3.7458 2.6615 3.91 2.67 4.0726 2.6643 4.2346 2.6923 4.3858 2.7523 4.5371 2.8122 4.6743 2.9028 4.7889 3.0183 4.9034 3.1338 4.9929 3.2717 5.0516 3.4235 5.1103 3.5752 5.137 3.7374 5.13 3.9 5.1372 4.0643 5.11 4.2282 5.0501 4.3814 4.9901 4.5346 4.8989 4.6735 4.7821 4.7893 4.6654 4.9051 4.5257 4.9953 4.3721 5.0539 4.2184 5.1126 4.0542 5.1385 3.89 5.13ZM13.34 13.34H11V9.44C11 8.51 10.67 7.87 9.84 7.87 9.5822 7.8722 9.3313 7.9541 9.1219 8.1045 8.9124 8.2549 8.7546 8.4664 8.67 8.71 8.605 8.8926 8.5778 9.0865 8.59 9.28V13.34H6.29V6.21H8.59V7.21C8.7945 6.8343 9.0988 6.5225 9.4694 6.3089 9.84 6.0954 10.2624 5.9885 10.69 6 12.2 6 13.34 7 13.34 9.13V13.34Z"></path>
</svg>