<svg width="32" height="32" viewBox="0 0 20 14" xmlns="http://www.w3.org/2000/svg">
    <path fill="currentColor" d="M7.9884 9.5859 7.9884 3.9743C9.9806 4.9117 11.5236 5.8172 13.3485 6.7935 11.8434 7.6282 9.9806 8.5647 7.9884 9.5859M19.091 1.1829C18.7473.7301 18.1616.3781 17.5381.2614 15.7052-.0866 4.271-.0876 2.4391.2614 1.9391.3552 1.4938.5815 1.1113.9336-.5004 2.4295.0047 10.4515.3931 11.751.5565 12.3134.7677 12.7193 1.0336 12.9856 1.3763 13.3376 1.8455 13.58 2.3844 13.6887 3.8935 14.0008 11.668 14.1753 17.5062 13.7355 18.0441 13.6418 18.5202 13.3915 18.8958 13.0245 20.3859 11.5346 20.2843 3.0617 19.091 1.1829"></path>
</svg>