<?xml version='1.0' encoding='utf-8'?>
<svg xmlns="http://www.w3.org/2000/svg" width="1440" height="1440">
    <defs>
        <linearGradient id="froglux-gradient" x1="0%" y1="100%" x2="0%" y2="0%">
            <stop offset="0%" style="stop-color: black; stop-opacity: 0.75"/>
            <stop offset="100%" style="stop-color: #353535; stop-opacity: 1"/>
        </linearGradient>
    </defs>
    <g id="ViewLayer_LineSet">
        <g id="fills">
            <path fill-rule="evenodd" stroke="none" fill-opacity="1.0" fill="rgb(0, 0, 0)" d=" M 252.585, 1439.100 1187.415, 1439.100 1212.082, 1437.862 1236.516, 1434.264 1260.468, 1428.238 1283.731, 1419.942 1306.046, 1409.358 1327.244, 1396.684 1347.066, 1381.950 1365.383, 1365.383 1381.950, 1347.066 1396.684, 1327.244 1409.358, 1306.046 1419.942, 1283.731 1428.238, 1260.468 1434.264, 1236.516 1437.862, 1212.082 1439.100, 1187.415 1439.100, 252.585 1437.862, 227.918 1434.264, 203.484 1428.238, 179.532 1419.942, 156.269 1409.358, 133.954 1396.684, 112.756 1381.950, 92.934 1365.383, 74.617 1347.066, 58.050 1327.244, 43.316 1306.046, 30.642 1283.731, 20.058 1260.468, 11.762 1236.516, 5.736 1212.082, 2.138 1187.415, 0.900 252.585, 0.900 227.918, 2.138 203.483, 5.736 179.532, 11.762 156.269, 20.058 133.954, 30.642 112.756, 43.316 92.934, 58.050 74.617, 74.617 58.050, 92.934 43.316, 112.756 30.642, 133.954 20.058, 156.269 11.762, 179.532 5.736, 203.484 2.138, 227.918 0.900, 252.585 0.900, 1187.415 2.138, 1212.082 5.736, 1236.516 11.762, 1260.468 20.058, 1283.731 30.642, 1306.046 43.316, 1327.244 58.050, 1347.066 74.617, 1365.383 92.934, 1381.950 112.756, 1396.684 133.954, 1409.358 156.269, 1419.942 179.532, 1428.238 203.484, 1434.264 227.918, 1437.862 252.585, 1439.100  z M 748.492, 698.779 751.816, 699.102 755.023, 699.640 758.114, 700.393 761.089, 701.361 763.947, 702.544 766.689, 703.942 769.315, 705.555 771.824, 707.384 774.216, 709.428 776.493, 711.686 778.653, 714.160 780.667, 716.813 782.506, 719.607 784.170, 722.544 785.659, 725.624 786.972, 728.845 788.111, 732.209 789.074, 735.715 789.862, 739.363 790.475, 743.153 790.913, 747.086 791.176, 751.161 791.264, 755.378 791.176, 759.595 790.913, 763.670 790.475, 767.603 789.862, 771.393 789.074, 775.041 788.111, 778.547 786.972, 781.911 785.659, 785.132 784.170, 788.211 782.506, 791.148 780.667, 793.943 778.653, 796.596 776.493, 799.070 774.216, 801.328 771.824, 803.372 769.315, 805.200 766.689, 806.814 763.947, 808.212 761.089, 809.395 758.114, 810.363 755.023, 811.116 751.816, 811.654 748.492, 811.977 745.052, 812.084 741.804, 811.982 738.662, 811.677 735.626, 811.169 732.695, 810.457 729.871, 809.542 727.152, 808.424 724.539, 807.102 722.031, 805.577 719.630, 803.848 717.334, 801.916 715.144, 799.781 713.060, 797.442 711.113, 794.913 709.336, 792.206 707.728, 789.322 706.289, 786.261 705.019, 783.022 703.919, 779.605 702.988, 776.011 702.226, 772.239 701.634, 768.290 701.211, 764.164 700.957, 759.860 700.872, 755.378 700.957, 750.923 701.211, 746.642 701.634, 742.534 702.226, 738.601 702.988, 734.842 703.919, 731.257 705.019, 727.845 706.289, 724.608 707.728, 721.545 709.336, 718.655 711.113, 715.940 713.060, 713.398 715.144, 711.046 717.334, 708.899 719.630, 706.956 722.031, 705.217 724.539, 703.683 727.152, 702.353 729.871, 701.228 732.695, 700.308 735.626, 699.592 738.662, 699.081 741.804, 698.774 745.052, 698.672 748.492, 698.779  z  M 544.975, 699.118 548.358, 699.010 551.714, 699.118 554.955, 699.443 558.081, 699.984 561.091, 700.741 563.986, 701.714 566.766, 702.904 569.431, 704.309 571.981, 705.932 574.415, 707.770 576.734, 709.825 578.939, 712.096 581.027, 714.583 582.974, 717.256 584.751, 720.085 586.360, 723.068 587.798, 726.207 589.068, 729.500 590.168, 732.949 591.099, 736.553 591.861, 740.313 592.453, 744.227 592.877, 748.297 593.130, 752.521 593.215, 756.901 593.130, 761.280 592.877, 765.501 592.453, 769.565 591.861, 773.471 591.099, 777.220 590.168, 780.811 589.068, 784.245 587.798, 787.521 586.360, 790.639 584.751, 793.601 582.974, 796.404 581.027, 799.050 578.939, 801.510 576.734, 803.757 574.415, 805.789 571.981, 807.608 569.431, 809.212 566.766, 810.603 563.986, 811.780 561.091, 812.742 558.081, 813.491 554.955, 814.026 551.714, 814.347 548.358, 814.454 544.975, 814.347 541.709, 814.026 538.561, 813.491 535.531, 812.742 532.618, 811.780 529.823, 810.603 527.145, 809.212 524.585, 807.608 522.142, 805.789 519.817, 803.757 517.609, 801.510 515.519, 799.050 513.572, 796.404 511.795, 793.601 510.187, 790.639 508.748, 787.521 507.479, 784.245 506.378, 780.811 505.447, 777.220 504.686, 773.471 504.093, 769.565 503.670, 765.501 503.416, 761.280 503.332, 756.901 503.416, 752.495 503.670, 748.247 504.093, 744.158 504.686, 740.228 505.447, 736.456 506.378, 732.844 507.479, 729.389 508.748, 726.094 510.187, 722.957 511.795, 719.979 513.572, 717.159 515.519, 714.499 517.609, 712.025 519.817, 709.766 522.142, 707.722 524.585, 705.894 527.145, 704.281 529.823, 702.882 532.618, 701.699 535.531, 700.731 538.561, 699.978 541.709, 699.440 544.975, 699.118  z  M 748.492, 698.779 751.816, 699.102 755.023, 699.640 758.114, 700.393 761.089, 701.361 763.947, 702.544 766.689, 703.942 769.315, 705.555 771.824, 707.384 774.216, 709.428 776.493, 711.686 778.653, 714.160 780.667, 716.813 782.506, 719.607 784.170, 722.544 785.659, 725.624 786.972, 728.845 788.111, 732.209 789.074, 735.715 789.862, 739.363 790.475, 743.153 790.913, 747.086 791.176, 751.161 791.264, 755.378 791.176, 759.595 790.913, 763.670 790.475, 767.603 789.862, 771.393 789.074, 775.041 788.111, 778.547 786.972, 781.911 785.659, 785.132 784.170, 788.211 782.506, 791.148 780.667, 793.943 778.653, 796.596 776.493, 799.070 774.216, 801.328 771.824, 803.372 769.315, 805.200 766.689, 806.814 763.947, 808.212 761.089, 809.395 758.114, 810.363 755.023, 811.116 751.816, 811.654 748.492, 811.977 745.052, 812.084 741.804, 811.982 738.662, 811.677 735.626, 811.169 732.695, 810.457 729.871, 809.542 727.152, 808.424 724.539, 807.102 722.031, 805.577 719.630, 803.848 717.334, 801.916 715.144, 799.781 713.060, 797.442 711.113, 794.913 709.336, 792.206 707.728, 789.322 706.289, 786.261 705.019, 783.022 703.919, 779.605 702.988, 776.011 702.226, 772.239 701.634, 768.290 701.211, 764.164 700.957, 759.860 700.872, 755.378 700.957, 750.923 701.211, 746.642 701.634, 742.534 702.226, 738.601 702.988, 734.842 703.919, 731.257 705.019, 727.845 706.289, 724.608 707.728, 721.545 709.336, 718.655 711.113, 715.940 713.060, 713.398 715.144, 711.046 717.334, 708.899 719.630, 706.956 722.031, 705.217 724.539, 703.683 727.152, 702.353 729.871, 701.228 732.695, 700.308 735.626, 699.592 738.662, 699.081 741.804, 698.774 745.052, 698.672 748.492, 698.779  z  M 544.975, 699.118 548.358, 699.010 551.714, 699.118 554.955, 699.443 558.081, 699.984 561.091, 700.741 563.986, 701.714 566.766, 702.904 569.431, 704.309 571.981, 705.932 574.415, 707.770 576.734, 709.825 578.939, 712.096 581.027, 714.583 582.974, 717.256 584.751, 720.085 586.360, 723.068 587.798, 726.207 589.068, 729.500 590.168, 732.949 591.099, 736.553 591.861, 740.313 592.453, 744.227 592.877, 748.297 593.130, 752.521 593.215, 756.901 593.130, 761.280 592.877, 765.501 592.453, 769.565 591.861, 773.471 591.099, 777.220 590.168, 780.811 589.068, 784.245 587.798, 787.521 586.360, 790.639 584.751, 793.601 582.974, 796.404 581.027, 799.050 578.939, 801.510 576.734, 803.757 574.415, 805.789 571.981, 807.608 569.431, 809.212 566.766, 810.603 563.986, 811.780 561.091, 812.742 558.081, 813.491 554.955, 814.026 551.714, 814.347 548.358, 814.454 544.975, 814.347 541.709, 814.026 538.561, 813.491 535.531, 812.742 532.618, 811.780 529.823, 810.603 527.145, 809.212 524.585, 807.608 522.142, 805.789 519.817, 803.757 517.609, 801.510 515.519, 799.050 513.572, 796.404 511.795, 793.601 510.187, 790.639 508.748, 787.521 507.479, 784.245 506.378, 780.811 505.447, 777.220 504.686, 773.471 504.093, 769.565 503.670, 765.501 503.416, 761.280 503.332, 756.901 503.416, 752.495 503.670, 748.247 504.093, 744.158 504.686, 740.228 505.447, 736.456 506.378, 732.844 507.479, 729.389 508.748, 726.094 510.187, 722.957 511.795, 719.979 513.572, 717.159 515.519, 714.499 517.609, 712.025 519.817, 709.766 522.142, 707.722 524.585, 705.894 527.145, 704.281 529.823, 702.882 532.618, 701.699 535.531, 700.731 538.561, 699.978 541.709, 699.440 544.975, 699.118 z" />
            <path fill-rule="evenodd" stroke="none" fill-opacity="1.0" fill="url(#froglux-gradient)" d=" M 252.585, 1439.100 1187.415, 1439.100 1212.082, 1437.862 1236.516, 1434.264 1260.468, 1428.238 1283.731, 1419.942 1306.046, 1409.358 1327.244, 1396.684 1347.066, 1381.950 1365.383, 1365.383 1381.950, 1347.066 1396.684, 1327.244 1409.358, 1306.046 1419.942, 1283.731 1428.238, 1260.468 1434.264, 1236.516 1437.862, 1212.082 1439.100, 1187.415 1439.100, 252.585 1437.862, 227.918 1434.264, 203.484 1428.238, 179.532 1419.942, 156.269 1409.358, 133.954 1396.684, 112.756 1381.950, 92.934 1365.383, 74.617 1347.066, 58.050 1327.244, 43.316 1306.046, 30.642 1283.731, 20.058 1260.468, 11.762 1236.516, 5.736 1212.082, 2.138 1187.415, 0.900 252.585, 0.900 227.918, 2.138 203.483, 5.736 179.532, 11.762 156.269, 20.058 133.954, 30.642 112.756, 43.316 92.934, 58.050 74.617, 74.617 58.050, 92.934 43.316, 112.756 30.642, 133.954 20.058, 156.269 11.762, 179.532 5.736, 203.484 2.138, 227.918 0.900, 252.585 0.900, 1187.415 2.138, 1212.082 5.736, 1236.516 11.762, 1260.468 20.058, 1283.731 30.642, 1306.046 43.316, 1327.244 58.050, 1347.066 74.617, 1365.383 92.934, 1381.950 112.756, 1396.684 133.954, 1409.358 156.269, 1419.942 179.532, 1428.238 203.484, 1434.264 227.918, 1437.862 252.585, 1439.100  z M 748.492, 698.779 751.816, 699.102 755.023, 699.640 758.114, 700.393 761.089, 701.361 763.947, 702.544 766.689, 703.942 769.315, 705.555 771.824, 707.384 774.216, 709.428 776.493, 711.686 778.653, 714.160 780.667, 716.813 782.506, 719.607 784.170, 722.544 785.659, 725.624 786.972, 728.845 788.111, 732.209 789.074, 735.715 789.862, 739.363 790.475, 743.153 790.913, 747.086 791.176, 751.161 791.264, 755.378 791.176, 759.595 790.913, 763.670 790.475, 767.603 789.862, 771.393 789.074, 775.041 788.111, 778.547 786.972, 781.911 785.659, 785.132 784.170, 788.211 782.506, 791.148 780.667, 793.943 778.653, 796.596 776.493, 799.070 774.216, 801.328 771.824, 803.372 769.315, 805.200 766.689, 806.814 763.947, 808.212 761.089, 809.395 758.114, 810.363 755.023, 811.116 751.816, 811.654 748.492, 811.977 745.052, 812.084 741.804, 811.982 738.662, 811.677 735.626, 811.169 732.695, 810.457 729.871, 809.542 727.152, 808.424 724.539, 807.102 722.031, 805.577 719.630, 803.848 717.334, 801.916 715.144, 799.781 713.060, 797.442 711.113, 794.913 709.336, 792.206 707.728, 789.322 706.289, 786.261 705.019, 783.022 703.919, 779.605 702.988, 776.011 702.226, 772.239 701.634, 768.290 701.211, 764.164 700.957, 759.860 700.872, 755.378 700.957, 750.923 701.211, 746.642 701.634, 742.534 702.226, 738.601 702.988, 734.842 703.919, 731.257 705.019, 727.845 706.289, 724.608 707.728, 721.545 709.336, 718.655 711.113, 715.940 713.060, 713.398 715.144, 711.046 717.334, 708.899 719.630, 706.956 722.031, 705.217 724.539, 703.683 727.152, 702.353 729.871, 701.228 732.695, 700.308 735.626, 699.592 738.662, 699.081 741.804, 698.774 745.052, 698.672 748.492, 698.779  z  M 544.975, 699.118 548.358, 699.010 551.714, 699.118 554.955, 699.443 558.081, 699.984 561.091, 700.741 563.986, 701.714 566.766, 702.904 569.431, 704.309 571.981, 705.932 574.415, 707.770 576.734, 709.825 578.939, 712.096 581.027, 714.583 582.974, 717.256 584.751, 720.085 586.360, 723.068 587.798, 726.207 589.068, 729.500 590.168, 732.949 591.099, 736.553 591.861, 740.313 592.453, 744.227 592.877, 748.297 593.130, 752.521 593.215, 756.901 593.130, 761.280 592.877, 765.501 592.453, 769.565 591.861, 773.471 591.099, 777.220 590.168, 780.811 589.068, 784.245 587.798, 787.521 586.360, 790.639 584.751, 793.601 582.974, 796.404 581.027, 799.050 578.939, 801.510 576.734, 803.757 574.415, 805.789 571.981, 807.608 569.431, 809.212 566.766, 810.603 563.986, 811.780 561.091, 812.742 558.081, 813.491 554.955, 814.026 551.714, 814.347 548.358, 814.454 544.975, 814.347 541.709, 814.026 538.561, 813.491 535.531, 812.742 532.618, 811.780 529.823, 810.603 527.145, 809.212 524.585, 807.608 522.142, 805.789 519.817, 803.757 517.609, 801.510 515.519, 799.050 513.572, 796.404 511.795, 793.601 510.187, 790.639 508.748, 787.521 507.479, 784.245 506.378, 780.811 505.447, 777.220 504.686, 773.471 504.093, 769.565 503.670, 765.501 503.416, 761.280 503.332, 756.901 503.416, 752.495 503.670, 748.247 504.093, 744.158 504.686, 740.228 505.447, 736.456 506.378, 732.844 507.479, 729.389 508.748, 726.094 510.187, 722.957 511.795, 719.979 513.572, 717.159 515.519, 714.499 517.609, 712.025 519.817, 709.766 522.142, 707.722 524.585, 705.894 527.145, 704.281 529.823, 702.882 532.618, 701.699 535.531, 700.731 538.561, 699.978 541.709, 699.440 544.975, 699.118  z  M 748.492, 698.779 751.816, 699.102 755.023, 699.640 758.114, 700.393 761.089, 701.361 763.947, 702.544 766.689, 703.942 769.315, 705.555 771.824, 707.384 774.216, 709.428 776.493, 711.686 778.653, 714.160 780.667, 716.813 782.506, 719.607 784.170, 722.544 785.659, 725.624 786.972, 728.845 788.111, 732.209 789.074, 735.715 789.862, 739.363 790.475, 743.153 790.913, 747.086 791.176, 751.161 791.264, 755.378 791.176, 759.595 790.913, 763.670 790.475, 767.603 789.862, 771.393 789.074, 775.041 788.111, 778.547 786.972, 781.911 785.659, 785.132 784.170, 788.211 782.506, 791.148 780.667, 793.943 778.653, 796.596 776.493, 799.070 774.216, 801.328 771.824, 803.372 769.315, 805.200 766.689, 806.814 763.947, 808.212 761.089, 809.395 758.114, 810.363 755.023, 811.116 751.816, 811.654 748.492, 811.977 745.052, 812.084 741.804, 811.982 738.662, 811.677 735.626, 811.169 732.695, 810.457 729.871, 809.542 727.152, 808.424 724.539, 807.102 722.031, 805.577 719.630, 803.848 717.334, 801.916 715.144, 799.781 713.060, 797.442 711.113, 794.913 709.336, 792.206 707.728, 789.322 706.289, 786.261 705.019, 783.022 703.919, 779.605 702.988, 776.011 702.226, 772.239 701.634, 768.290 701.211, 764.164 700.957, 759.860 700.872, 755.378 700.957, 750.923 701.211, 746.642 701.634, 742.534 702.226, 738.601 702.988, 734.842 703.919, 731.257 705.019, 727.845 706.289, 724.608 707.728, 721.545 709.336, 718.655 711.113, 715.940 713.060, 713.398 715.144, 711.046 717.334, 708.899 719.630, 706.956 722.031, 705.217 724.539, 703.683 727.152, 702.353 729.871, 701.228 732.695, 700.308 735.626, 699.592 738.662, 699.081 741.804, 698.774 745.052, 698.672 748.492, 698.779  z  M 544.975, 699.118 548.358, 699.010 551.714, 699.118 554.955, 699.443 558.081, 699.984 561.091, 700.741 563.986, 701.714 566.766, 702.904 569.431, 704.309 571.981, 705.932 574.415, 707.770 576.734, 709.825 578.939, 712.096 581.027, 714.583 582.974, 717.256 584.751, 720.085 586.360, 723.068 587.798, 726.207 589.068, 729.500 590.168, 732.949 591.099, 736.553 591.861, 740.313 592.453, 744.227 592.877, 748.297 593.130, 752.521 593.215, 756.901 593.130, 761.280 592.877, 765.501 592.453, 769.565 591.861, 773.471 591.099, 777.220 590.168, 780.811 589.068, 784.245 587.798, 787.521 586.360, 790.639 584.751, 793.601 582.974, 796.404 581.027, 799.050 578.939, 801.510 576.734, 803.757 574.415, 805.789 571.981, 807.608 569.431, 809.212 566.766, 810.603 563.986, 811.780 561.091, 812.742 558.081, 813.491 554.955, 814.026 551.714, 814.347 548.358, 814.454 544.975, 814.347 541.709, 814.026 538.561, 813.491 535.531, 812.742 532.618, 811.780 529.823, 810.603 527.145, 809.212 524.585, 807.608 522.142, 805.789 519.817, 803.757 517.609, 801.510 515.519, 799.050 513.572, 796.404 511.795, 793.601 510.187, 790.639 508.748, 787.521 507.479, 784.245 506.378, 780.811 505.447, 777.220 504.686, 773.471 504.093, 769.565 503.670, 765.501 503.416, 761.280 503.332, 756.901 503.416, 752.495 503.670, 748.247 504.093, 744.158 504.686, 740.228 505.447, 736.456 506.378, 732.844 507.479, 729.389 508.748, 726.094 510.187, 722.957 511.795, 719.979 513.572, 717.159 515.519, 714.499 517.609, 712.025 519.817, 709.766 522.142, 707.722 524.585, 705.894 527.145, 704.281 529.823, 702.882 532.618, 701.699 535.531, 700.731 538.561, 699.978 541.709, 699.440 544.975, 699.118 z" />
            <path fill-rule="evenodd" stroke="none" fill-opacity="1.0" fill="rgb(255, 255, 255)" d=" M 148.706, 593.892 148.706, 846.108 193.394, 846.108 193.394, 739.466 309.345, 739.466 309.345, 701.549 193.394, 701.549 193.394, 632.656 318.317, 632.656 318.317, 593.892 148.706, 593.892  z" />
            <path fill-rule="evenodd" stroke="none" fill-opacity="1.0" fill="rgb(255, 255, 255)" d=" M 430.764, 665.665 430.037, 665.664 427.205, 665.719 424.467, 665.887 421.822, 666.166 419.269, 666.557 416.809, 667.060 414.442, 667.674 412.168, 668.400 409.987, 669.237 407.899, 670.186 405.904, 671.247 404.001, 672.420 402.191, 673.704 400.467, 675.094 398.822, 676.584 397.256, 678.174 395.768, 679.864 394.360, 681.653 393.029, 683.543 391.778, 685.533 390.606, 687.622 389.512, 689.811 388.497, 692.101 387.560, 694.490 386.703, 696.979 386.195, 696.979 386.195, 667.356 345.062, 667.356 345.062, 846.108 387.719, 846.108 387.719, 744.883 387.791, 741.458 388.008, 738.178 388.369, 735.044 388.875, 732.056 389.526, 729.214 390.321, 726.517 391.261, 723.966 392.345, 721.561 393.574, 719.302 394.948, 717.188 396.466, 715.220 398.129, 713.398 399.897, 711.722 401.733, 710.192 403.635, 708.807 405.605, 707.568 407.642, 706.475 409.745, 705.527 411.916, 704.726 414.153, 704.070 416.458, 703.559 418.829, 703.195 421.268, 702.976 423.774, 702.904 424.814, 702.907 425.847, 702.918 426.873, 702.935 427.892, 702.960 428.905, 702.992 429.910, 703.030 430.908, 703.076 431.899, 703.129 432.883, 703.189 433.859, 703.256 434.829, 703.330 435.792, 703.411 436.728, 703.495 437.616, 703.576 438.458, 703.655 439.253, 703.731 440.000, 703.805 440.701, 703.877 441.354, 703.946 441.961, 704.013 442.520, 704.078 443.033, 704.140 443.498, 704.200 443.917, 704.258 443.917, 666.341 443.487, 666.312 443.045, 666.282 442.589, 666.251 442.121, 666.218 441.639, 666.185 441.145, 666.150 440.638, 666.114 440.118, 666.077 439.585, 666.039 439.039, 666.000 438.480, 665.959 437.908, 665.918 437.323, 665.877 436.725, 665.840 436.115, 665.806 435.491, 665.776 434.854, 665.750 434.205, 665.727 433.543, 665.708 432.867, 665.692 432.179, 665.680 431.478, 665.671 430.764, 665.665 z" />
            <path fill-rule="evenodd" stroke="none" fill-opacity="1.0" fill="rgb(255, 255, 255)" d=" M 552.687 663.376 548.358 663.294 544.003 663.376 539.739 663.623 535.567 664.034 531.487 664.61 527.499 665.351 523.602 666.256 519.797 667.326 516.083 668.56 512.462 669.959 508.932 671.522 505.493 673.25 502.147 675.143 498.906 677.182 495.787 679.349 492.789 681.644 489.912 684.067 487.156 686.619 484.521 689.298 482.007 692.106 479.615 695.042 477.343 698.106 475.192 701.298 473.163 704.618 471.254 708.066 469.483 711.625 467.867 715.277 466.404 719.021 465.095 722.859 463.94 726.789 462.939 730.812 462.092 734.928 461.399 739.137 460.86 743.439 460.475 747.834 460.244 752.321 460.167 756.901 460.244 761.481 460.475 765.967 460.86 770.359 461.399 774.656 462.092 778.86 462.939 782.969 463.94 786.985 465.095 790.906 466.404 794.734 467.867 798.467 469.483 802.107 471.254 805.652 473.163 809.086 475.192 812.392 477.343 815.57 479.615 818.62 482.007 821.542 484.521 824.335 487.156 827.001 489.912 829.538 492.789 831.947 495.787 834.228 498.906 836.381 502.147 838.406 505.493 840.285 508.932 842.001 512.462 843.553 516.083 844.942 519.797 846.167 523.602 847.229 527.499 848.128 531.487 848.863 535.567 849.435 539.739 849.844 544.003 850.089 548.358 850.17 552.687 850.089 556.927 849.844 561.08 849.435 565.144 848.863 569.12 848.128 573.008 847.229 576.808 846.167 580.52 844.942 584.143 843.553 587.678 842.001 591.126 840.285 594.485 838.406 597.738 836.381 600.87 834.228 603.879 831.947 606.766 829.538 609.531 827.001 612.174 824.335 614.694 821.542 617.092 818.62 619.368 815.57 621.521 812.392 623.552 809.086 625.461 805.652 627.232 802.107 628.849 798.467 630.312 794.734 631.621 790.906 632.776 786.985 633.777 782.969 634.624 778.86 635.317 774.656 635.856 770.359 636.241 765.967 636.472 761.481 636.549 756.901 636.472 752.321 636.241 747.834 635.856 743.439 635.317 739.137 634.624 734.928 633.777 730.812 632.776 726.789 631.621 722.859 630.312 719.021 628.849 715.277 627.232 711.625 625.461 708.066 623.552 704.618 621.521 701.298 619.368 698.106 617.092 695.042 614.694 692.106 612.174 689.298 609.531 686.619 606.766 684.067 603.879 681.644 600.87 679.349 597.738 677.182 594.485 675.143 591.126 673.25 587.678 671.522 584.143 669.959 580.52 668.56 576.808 667.326 573.008 666.256 569.12 665.351 565.144 664.61 561.08 664.034 556.927 663.623 552.687 663.376zM544.975 699.118 548.358 699.01 551.714 699.118 554.955 699.443 558.081 699.984 561.091 700.741 563.986 701.714 566.766 702.904 569.431 704.309 571.981 705.932 574.415 707.77 576.734 709.825 578.939 712.096 581.027 714.583 582.974 717.256 584.751 720.085 586.36 723.068 587.798 726.207 589.068 729.5 590.168 732.949 591.099 736.553 591.861 740.313 592.453 744.227 592.877 748.297 593.13 752.521 593.215 756.901 593.13 761.28 592.877 765.501 592.453 769.565 591.861 773.471 591.099 777.22 590.168 780.811 589.068 784.245 587.798 787.521 586.36 790.639 584.751 793.601 582.974 796.404 581.027 799.05 578.939 801.51 576.734 803.757 574.415 805.789 571.981 807.608 569.431 809.212 566.766 810.603 563.986 811.78 561.091 812.742 558.081 813.491 554.955 814.026 551.714 814.347 548.358 814.454 544.975 814.347 541.709 814.026 538.561 813.491 535.531 812.742 532.618 811.78 529.823 810.603 527.145 809.212 524.585 807.608 522.142 805.789 519.817 803.757 517.609 801.51 515.519 799.05 513.572 796.404 511.795 793.601 510.187 790.639 508.748 787.521 507.479 784.245 506.378 780.811 505.447 777.22 504.686 773.471 504.093 769.565 503.67 765.501 503.416 761.28 503.332 756.901 503.416 752.495 503.67 748.247 504.093 744.158 504.686 740.228 505.447 736.456 506.378 732.844 507.479 729.389 508.748 726.094 510.187 722.957 511.795 719.979 513.572 717.159 515.519 714.499 517.609 712.025 519.817 709.766 522.142 707.722 524.585 705.894 527.145 704.281 529.823 702.882 532.618 701.699 535.531 700.731 538.561 699.978 541.709 699.44 544.975 699.118 z" />
            <path fill-rule="evenodd" stroke="none" fill-opacity="1.0" fill="rgb(255, 255, 255)" d=" M 737.61 663.853 734.727 663.802 730.956 663.883 727.26 664.126 723.639 664.532 720.094 665.099 716.624 665.829 713.229 666.722 709.909 667.776 706.665 668.993 703.496 670.372 700.402 671.913 697.383 673.616 694.44 675.481 691.588 677.492 688.844 679.629 686.209 681.893 683.682 684.284 681.263 686.802 678.951 689.446 676.749 692.218 674.654 695.117 672.667 698.143 670.789 701.295 669.018 704.575 667.356 707.982 665.815 711.495 664.408 715.096 663.135 718.783 661.996 722.558 660.991 726.419 660.12 730.368 659.383 734.403 658.78 738.526 658.311 742.735 657.976 747.032 657.775 751.415 657.708 755.886 657.774 760.327 657.973 764.681 658.306 768.946 658.77 773.123 659.368 777.212 660.099 781.213 660.962 785.126 661.958 788.95 663.087 792.687 664.349 796.335 665.744 799.895 667.272 803.367 668.92 806.733 670.678 809.975 672.546 813.094 674.522 816.09 676.608 818.963 678.803 821.711 681.108 824.337 683.522 826.839 686.045 829.218 688.678 831.473 691.419 833.605 694.271 835.613 697.218 837.479 700.247 839.182 703.358 840.723 706.552 842.102 709.828 843.318 713.187 844.373 716.627 845.265 720.15 845.995 723.756 846.563 727.443 846.968 731.213 847.212 735.065 847.293 737.973 847.242 740.83 847.088 743.635 846.833 746.388 846.475 749.089 846.014 751.739 845.452 754.336 844.787 756.883 844.02 759.377 843.151 761.82 842.179 764.211 841.106 766.55 839.929 768.827 838.644 771.031 837.242 773.162 835.724 775.22 834.09 777.206 832.339 779.118 830.471 780.958 828.488 782.725 826.388 784.419 824.171 786.04 821.838 787.588 819.389 789.063 816.824 789.232 816.824 789.232 844.077 789.155 847.423 788.924 850.636 788.539 853.715 788 856.659 787.307 859.47 786.461 862.146 785.46 864.689 784.305 867.098 782.996 869.372 781.533 871.513 779.916 873.519 778.145 875.392 776.235 877.122 774.202 878.702 772.046 880.132 769.766 881.411 767.363 882.539 764.836 883.517 762.186 884.345 759.412 885.022 756.515 885.548 753.495 885.924 750.351 886.15 747.084 886.225 744.606 886.184 742.193 886.058 739.847 885.85 737.567 885.558 735.352 885.182 733.203 884.723 731.12 884.181 729.103 883.555 727.152 882.845 725.266 882.052 723.447 881.176 721.693 880.216 720.022 879.177 718.453 878.06 716.985 876.868 715.618 875.599 714.352 874.253 713.187 872.832 712.123 871.334 711.16 869.759 710.299 868.108 709.538 866.381 708.879 864.577 708.32 862.697 666.51 862.697 667.222 866.966 668.174 871.085 669.366 875.053 670.798 878.871 672.47 882.539 674.381 886.056 676.532 889.423 678.923 892.639 681.554 895.705 684.425 898.62 687.535 901.385 690.885 903.999 694.456 906.432 698.23 908.654 702.205 910.664 706.383 912.463 710.763 914.05 715.345 915.425 720.129 916.589 725.116 917.541 730.304 918.281 735.695 918.81 741.288 919.128 747.084 919.233 751.083 919.179 755.011 919.015 758.869 918.742 762.657 918.359 766.374 917.867 770.02 917.266 773.596 916.555 777.101 915.735 780.536 914.806 783.9 913.767 787.194 912.62 790.417 911.362 793.549 909.986 796.568 908.48 799.473 906.845 802.266 905.08 804.946 903.187 807.514 901.164 809.968 899.011 812.31 896.73 814.539 894.319 816.654 891.778 818.658 889.109 820.548 886.31 822.305 883.374 823.91 880.294 825.361 877.069 826.66 873.699 827.806 870.185 828.8 866.526 829.64 862.723 830.328 858.775 830.863 854.683 831.245 850.445 831.474 846.064 831.55 841.538 831.55 667.356 789.402 667.356 789.402 693.932 789.232 693.932 787.728 691.421 786.15 689.021 784.498 686.733 782.772 684.556 780.971 682.492 779.097 680.538 777.149 678.697 775.126 676.967 773.03 675.349 770.859 673.843 768.615 672.448 766.296 671.165 763.917 669.989 761.493 668.915 759.023 667.943 756.506 667.074 753.944 666.307 751.337 665.642 748.683 665.08 745.983 664.62 743.238 664.262 740.447 664.006 737.61 663.853zM748.492 698.779 751.816 699.102 755.023 699.64 758.114 700.393 761.089 701.361 763.947 702.544 766.689 703.942 769.315 705.555 771.824 707.384 774.216 709.428 776.493 711.686 778.653 714.16 780.667 716.813 782.506 719.607 784.17 722.544 785.659 725.624 786.972 728.845 788.111 732.209 789.074 735.715 789.862 739.363 790.475 743.153 790.913 747.086 791.176 751.161 791.264 755.378 791.176 759.595 790.913 763.67 790.475 767.603 789.862 771.393 789.074 775.041 788.111 778.547 786.972 781.911 785.659 785.132 784.17 788.211 782.506 791.148 780.667 793.943 778.653 796.596 776.493 799.07 774.216 801.328 771.824 803.372 769.315 805.2 766.689 806.814 763.947 808.212 761.089 809.395 758.114 810.363 755.023 811.116 751.816 811.654 748.492 811.977 745.052 812.084 741.804 811.982 738.662 811.677 735.626 811.169 732.695 810.457 729.871 809.542 727.152 808.424 724.539 807.102 722.031 805.577 719.63 803.848 717.334 801.916 715.144 799.781 713.06 797.442 711.113 794.913 709.336 792.206 707.728 789.322 706.289 786.261 705.019 783.022 703.919 779.605 702.988 776.011 702.226 772.239 701.634 768.29 701.211 764.164 700.957 759.86 700.872 755.378 700.957 750.923 701.211 746.642 701.634 742.534 702.226 738.601 702.988 734.842 703.919 731.257 705.019 727.845 706.289 724.608 707.728 721.545 709.336 718.655 711.113 715.94 713.06 713.398 715.144 711.046 717.334 708.899 719.63 706.956 722.031 705.217 724.539 703.683 727.152 702.353 729.871 701.228 732.695 700.308 735.626 699.592 738.662 699.081 741.804 698.774 745.052 698.672 748.492 698.779 z" />
            <path fill-rule="evenodd" stroke="none" fill-opacity="1.0" fill="rgb(255, 255, 255)" d=" M 912.124, 593.892 869.467, 593.892 869.467, 846.108 912.124, 846.108 912.124, 593.892 z" />
            <path fill-rule="evenodd" stroke="none" fill-opacity="1.0" fill="rgb(255, 255, 255)" d=" M 992.698, 667.356 950.041, 667.356 950.041, 779.076 950.164, 784.690 950.535, 790.079 951.152, 795.242 952.016, 800.179 953.127, 804.890 954.484, 809.376 956.089, 813.636 957.940, 817.670 960.039, 821.479 962.384, 825.062 964.976, 828.419 967.815, 831.550 970.849, 834.443 974.026, 837.085 977.347, 839.474 980.811, 841.613 984.419, 843.499 988.170, 845.135 992.064, 846.518 996.102, 847.650 1000.283, 848.531 1004.608, 849.159 1009.076, 849.537 1013.687, 849.663 1019.604, 849.447 1025.278, 848.802 1030.710, 847.727 1035.900, 846.221 1040.847, 844.285 1045.553, 841.918 1050.016, 839.122 1054.238, 835.895 1058.217, 832.238 1061.953, 828.151 1065.448, 823.633 1068.701, 818.686 1068.701, 846.108 1110.680, 846.108 1110.680, 667.356 1067.854, 667.356 1067.854, 768.412 1067.777, 772.135 1067.547, 775.686 1067.161, 779.065 1066.623, 782.273 1065.930, 785.310 1065.083, 788.174 1064.082, 790.867 1062.927, 793.389 1061.618, 795.739 1060.155, 797.917 1058.538, 799.924 1056.767, 801.759 1054.879, 803.435 1052.909, 804.965 1050.859, 806.350 1048.727, 807.589 1046.514, 808.682 1044.220, 809.630 1041.845, 810.431 1039.389, 811.087 1036.851, 811.597 1034.233, 811.962 1031.533, 812.181 1028.753, 812.253 1025.956, 812.183 1023.265, 811.971 1020.680, 811.619 1018.201, 811.125 1015.828, 810.490 1013.560, 809.714 1011.399, 808.797 1009.343, 807.740 1007.393, 806.540 1005.548, 805.200 1003.810, 803.719 1002.177, 802.097 1000.663, 800.339 999.280, 798.448 998.030, 796.426 996.911, 794.273 995.923, 791.988 995.067, 789.571 994.343, 787.022 993.751, 784.342 993.290, 781.531 992.961, 778.587 992.763, 775.512 992.698, 772.305 992.698, 667.356  z" />
            <path fill-rule="evenodd" stroke="none" fill-opacity="1.0" fill="rgb(255, 255, 255)" d=" M 1184.483, 667.356 1136.918, 667.356 1197.517, 755.039 1132.686, 846.108 1180.251, 846.108 1201.918, 814.285 1202.762, 812.962 1203.601, 811.647 1204.436, 810.339 1205.266, 809.037 1206.091, 807.743 1206.912, 806.456 1207.727, 805.176 1208.539, 803.903 1209.345, 802.637 1210.147, 801.378 1210.944, 800.126 1211.736, 798.881 1212.526, 797.640 1213.316, 796.398 1214.106, 795.157 1214.896, 793.916 1215.686, 792.674 1216.475, 791.433 1217.266, 790.192 1218.055, 788.950 1218.845, 787.709 1219.635, 786.468 1220.425, 785.226 1221.215, 783.985 1221.978, 785.226 1222.743, 786.468 1223.511, 787.709 1224.281, 788.950 1225.053, 790.192 1225.828, 791.433 1226.605, 792.674 1227.384, 793.916 1228.166, 795.157 1228.950, 796.398 1229.736, 797.640 1230.525, 798.881 1231.316, 800.126 1232.110, 801.378 1232.906, 802.637 1233.704, 803.903 1234.504, 805.176 1235.307, 806.456 1236.112, 807.743 1236.920, 809.037 1237.730, 810.339 1238.542, 811.647 1239.357, 812.962 1240.174, 814.285 1261.502, 846.108 1309.237, 846.108 1245.252, 754.193 1306.359, 667.356 1259.471, 667.356 1240.512, 695.794 1239.696, 697.090 1238.883, 698.383 1238.074, 699.672 1237.268, 700.957 1236.466, 702.239 1235.667, 703.517 1234.872, 704.792 1234.080, 706.063 1233.292, 707.331 1232.507, 708.595 1231.726, 709.856 1230.948, 711.113 1230.173, 712.368 1229.399, 713.622 1228.626, 714.874 1227.854, 716.126 1227.084, 717.376 1226.314, 718.625 1225.546, 719.872 1224.779, 721.119 1224.013, 722.365 1223.249, 723.609 1222.485, 724.852 1221.723, 726.094 1220.961, 724.852 1220.200, 723.609 1219.438, 722.365 1218.676, 721.119 1217.914, 719.872 1217.153, 718.625 1216.391, 717.376 1215.629, 716.126 1214.867, 714.874 1214.106, 713.622 1213.344, 712.368 1212.582, 711.113 1211.818, 709.856 1211.049, 708.595 1210.276, 707.331 1209.498, 706.063 1208.715, 704.792 1207.927, 703.517 1207.135, 702.239 1206.338, 700.957 1205.536, 699.672 1204.730, 698.383 1203.919, 697.090 1203.103, 695.794 1184.483, 667.356 z" />
        </g>
    </g>
</svg>